<mxfile host="app.diagrams.net" modified="2021-09-27T10:56:27.051Z" agent="5.0 (Windows NT 10.0; Win64; x64) AppleWebKit/537.36 (KHTML, like Gecko) Chrome/94.0.4606.61 Safari/537.36" etag="fKrNf5kpApqTJBpqtUHg" version="15.2.9" type="github">
  <diagram id="C5RBs43oDa-KdzZeNtuy" name="Page-1">
    <mxGraphModel dx="813" dy="454" grid="1" gridSize="10" guides="1" tooltips="1" connect="1" arrows="1" fold="1" page="1" pageScale="1" pageWidth="1169" pageHeight="827" math="0" shadow="0">
      <root>
        <mxCell id="WIyWlLk6GJQsqaUBKTNV-0" />
        <mxCell id="WIyWlLk6GJQsqaUBKTNV-1" parent="WIyWlLk6GJQsqaUBKTNV-0" />
        <mxCell id="Ck0CoVih8vaZb2gh3P4g-0" value="&lt;p&gt;&lt;font&gt;&lt;b&gt;Parliament&lt;/b&gt;&lt;br&gt;&lt;/font&gt;&lt;/p&gt;" style="swimlane;fontStyle=0;align=center;verticalAlign=top;childLayout=stackLayout;horizontal=1;startSize=55;horizontalStack=0;resizeParent=1;resizeParentMax=0;resizeLast=0;collapsible=0;marginBottom=0;html=1;fontFamily=Comic Sans MS;fillColor=#21C0A5;strokeColor=#006658;fontColor=#5C5C5C;" vertex="1" parent="WIyWlLk6GJQsqaUBKTNV-1">
          <mxGeometry x="70" y="100" width="230" height="263" as="geometry" />
        </mxCell>
        <mxCell id="Ck0CoVih8vaZb2gh3P4g-1" value="attributes" style="text;html=1;strokeColor=none;fillColor=none;align=center;verticalAlign=middle;spacingLeft=4;spacingRight=4;overflow=hidden;rotatable=0;points=[[0,0.5],[1,0.5]];portConstraint=eastwest;fontFamily=Comic Sans MS;fontColor=#5C5C5C;" vertex="1" parent="Ck0CoVih8vaZb2gh3P4g-0">
          <mxGeometry y="55" width="230" height="20" as="geometry" />
        </mxCell>
        <mxCell id="Ck0CoVih8vaZb2gh3P4g-2" value="&lt;u&gt;-&amp;nbsp;parliament :&amp;nbsp;Parliament&lt;/u&gt;" style="text;html=1;strokeColor=none;fillColor=none;align=left;verticalAlign=middle;spacingLeft=4;spacingRight=4;overflow=hidden;rotatable=0;points=[[0,0.5],[1,0.5]];portConstraint=eastwest;fontFamily=Comic Sans MS;fontColor=#5C5C5C;" vertex="1" parent="Ck0CoVih8vaZb2gh3P4g-0">
          <mxGeometry y="75" width="230" height="20" as="geometry" />
        </mxCell>
        <mxCell id="Ck0CoVih8vaZb2gh3P4g-9" value="- members : List&amp;lt;MemberOfParliament&amp;gt;" style="text;html=1;strokeColor=none;fillColor=none;align=left;verticalAlign=middle;spacingLeft=4;spacingRight=4;overflow=hidden;rotatable=0;points=[[0,0.5],[1,0.5]];portConstraint=eastwest;fontFamily=Comic Sans MS;fontColor=#5C5C5C;" vertex="1" parent="Ck0CoVih8vaZb2gh3P4g-0">
          <mxGeometry y="95" width="230" height="20" as="geometry" />
        </mxCell>
        <mxCell id="Ck0CoVih8vaZb2gh3P4g-131" style="edgeStyle=orthogonalEdgeStyle;curved=0;rounded=1;sketch=0;orthogonalLoop=1;jettySize=auto;html=1;entryX=0.135;entryY=-0.012;entryDx=0;entryDy=0;entryPerimeter=0;fontColor=#5C5C5C;startArrow=none;startFill=0;endArrow=diamondThin;endFill=1;strokeColor=#006658;fillColor=#21C0A5;" edge="1" parent="Ck0CoVih8vaZb2gh3P4g-0" source="Ck0CoVih8vaZb2gh3P4g-8" target="Ck0CoVih8vaZb2gh3P4g-0">
          <mxGeometry relative="1" as="geometry">
            <Array as="points">
              <mxPoint x="-40" y="125" />
              <mxPoint x="-40" y="-20" />
              <mxPoint x="31" y="-20" />
            </Array>
          </mxGeometry>
        </mxCell>
        <mxCell id="Ck0CoVih8vaZb2gh3P4g-8" value="- pm : PrimeMinister" style="text;html=1;strokeColor=none;fillColor=none;align=left;verticalAlign=middle;spacingLeft=4;spacingRight=4;overflow=hidden;rotatable=0;points=[[0,0.5],[1,0.5]];portConstraint=eastwest;fontFamily=Comic Sans MS;fontColor=#5C5C5C;" vertex="1" parent="Ck0CoVih8vaZb2gh3P4g-0">
          <mxGeometry y="115" width="230" height="20" as="geometry" />
        </mxCell>
        <mxCell id="Ck0CoVih8vaZb2gh3P4g-5" value="" style="line;strokeWidth=1;fillColor=none;align=left;verticalAlign=middle;spacingTop=-1;spacingLeft=3;spacingRight=3;rotatable=0;labelPosition=right;points=[];portConstraint=eastwest;strokeColor=#006658;fontColor=#5C5C5C;" vertex="1" parent="Ck0CoVih8vaZb2gh3P4g-0">
          <mxGeometry y="135" width="230" height="8" as="geometry" />
        </mxCell>
        <mxCell id="Ck0CoVih8vaZb2gh3P4g-6" value="operations" style="text;html=1;strokeColor=none;fillColor=none;align=center;verticalAlign=middle;spacingLeft=4;spacingRight=4;overflow=hidden;rotatable=0;points=[[0,0.5],[1,0.5]];portConstraint=eastwest;fontFamily=Comic Sans MS;fontColor=#5C5C5C;" vertex="1" parent="Ck0CoVih8vaZb2gh3P4g-0">
          <mxGeometry y="143" width="230" height="20" as="geometry" />
        </mxCell>
        <mxCell id="Ck0CoVih8vaZb2gh3P4g-7" value="-&amp;nbsp;Parliament()" style="text;html=1;strokeColor=none;fillColor=none;align=left;verticalAlign=middle;spacingLeft=4;spacingRight=4;overflow=hidden;rotatable=0;points=[[0,0.5],[1,0.5]];portConstraint=eastwest;fontFamily=Comic Sans MS;fontColor=#5C5C5C;" vertex="1" parent="Ck0CoVih8vaZb2gh3P4g-0">
          <mxGeometry y="163" width="230" height="20" as="geometry" />
        </mxCell>
        <mxCell id="Ck0CoVih8vaZb2gh3P4g-10" value="&lt;u&gt;+ getInstance() :&amp;nbsp;Parliament&lt;/u&gt;" style="text;html=1;strokeColor=none;fillColor=none;align=left;verticalAlign=middle;spacingLeft=4;spacingRight=4;overflow=hidden;rotatable=0;points=[[0,0.5],[1,0.5]];portConstraint=eastwest;fontFamily=Comic Sans MS;fontColor=#5C5C5C;" vertex="1" parent="Ck0CoVih8vaZb2gh3P4g-0">
          <mxGeometry y="183" width="230" height="20" as="geometry" />
        </mxCell>
        <mxCell id="Ck0CoVih8vaZb2gh3P4g-20" value="- countMembers() :&amp;nbsp;int" style="text;html=1;strokeColor=none;fillColor=none;align=left;verticalAlign=middle;spacingLeft=4;spacingRight=4;overflow=hidden;rotatable=0;points=[[0,0.5],[1,0.5]];portConstraint=eastwest;fontFamily=Comic Sans MS;fontStyle=0;fontColor=#5C5C5C;" vertex="1" parent="Ck0CoVih8vaZb2gh3P4g-0">
          <mxGeometry y="203" width="230" height="20" as="geometry" />
        </mxCell>
        <mxCell id="Ck0CoVih8vaZb2gh3P4g-21" value="+ addMember() :&amp;nbsp;void" style="text;html=1;strokeColor=none;fillColor=none;align=left;verticalAlign=middle;spacingLeft=4;spacingRight=4;overflow=hidden;rotatable=0;points=[[0,0.5],[1,0.5]];portConstraint=eastwest;fontFamily=Comic Sans MS;fontStyle=0;fontColor=#5C5C5C;" vertex="1" parent="Ck0CoVih8vaZb2gh3P4g-0">
          <mxGeometry y="223" width="230" height="20" as="geometry" />
        </mxCell>
        <mxCell id="Ck0CoVih8vaZb2gh3P4g-22" value="+ electPrimeMinister() :&amp;nbsp;PrimeMinister" style="text;html=1;strokeColor=none;fillColor=none;align=left;verticalAlign=middle;spacingLeft=4;spacingRight=4;overflow=hidden;rotatable=0;points=[[0,0.5],[1,0.5]];portConstraint=eastwest;fontFamily=Comic Sans MS;fontStyle=0;fontColor=#5C5C5C;" vertex="1" parent="Ck0CoVih8vaZb2gh3P4g-0">
          <mxGeometry y="243" width="230" height="20" as="geometry" />
        </mxCell>
        <mxCell id="Ck0CoVih8vaZb2gh3P4g-31" value="&lt;p&gt;&lt;font&gt;&lt;b&gt;MemberOfParliament&lt;/b&gt;&lt;br&gt;&lt;/font&gt;&lt;/p&gt;" style="swimlane;fontStyle=0;align=center;verticalAlign=top;childLayout=stackLayout;horizontal=1;startSize=55;horizontalStack=0;resizeParent=1;resizeParentMax=0;resizeLast=0;collapsible=0;marginBottom=0;html=1;fontFamily=Comic Sans MS;fillColor=#21C0A5;strokeColor=#006658;fontColor=#5C5C5C;" vertex="1" parent="WIyWlLk6GJQsqaUBKTNV-1">
          <mxGeometry x="470" y="80" width="230" height="143" as="geometry" />
        </mxCell>
        <mxCell id="Ck0CoVih8vaZb2gh3P4g-32" value="attributes" style="text;html=1;strokeColor=none;fillColor=none;align=center;verticalAlign=middle;spacingLeft=4;spacingRight=4;overflow=hidden;rotatable=0;points=[[0,0.5],[1,0.5]];portConstraint=eastwest;fontFamily=Comic Sans MS;fontColor=#5C5C5C;" vertex="1" parent="Ck0CoVih8vaZb2gh3P4g-31">
          <mxGeometry y="55" width="230" height="20" as="geometry" />
        </mxCell>
        <mxCell id="Ck0CoVih8vaZb2gh3P4g-36" value="" style="line;strokeWidth=1;fillColor=none;align=left;verticalAlign=middle;spacingTop=-1;spacingLeft=3;spacingRight=3;rotatable=0;labelPosition=right;points=[];portConstraint=eastwest;strokeColor=#006658;fontColor=#5C5C5C;" vertex="1" parent="Ck0CoVih8vaZb2gh3P4g-31">
          <mxGeometry y="75" width="230" height="8" as="geometry" />
        </mxCell>
        <mxCell id="Ck0CoVih8vaZb2gh3P4g-37" value="operations" style="text;html=1;strokeColor=none;fillColor=none;align=center;verticalAlign=middle;spacingLeft=4;spacingRight=4;overflow=hidden;rotatable=0;points=[[0,0.5],[1,0.5]];portConstraint=eastwest;fontFamily=Comic Sans MS;fontColor=#5C5C5C;" vertex="1" parent="Ck0CoVih8vaZb2gh3P4g-31">
          <mxGeometry y="83" width="230" height="20" as="geometry" />
        </mxCell>
        <mxCell id="Ck0CoVih8vaZb2gh3P4g-42" value="+ debate(topic : String) :&amp;nbsp;void" style="text;html=1;strokeColor=none;fillColor=none;align=left;verticalAlign=middle;spacingLeft=4;spacingRight=4;overflow=hidden;rotatable=0;points=[[0,0.5],[1,0.5]];portConstraint=eastwest;fontFamily=Comic Sans MS;fontStyle=0;fontColor=#5C5C5C;" vertex="1" parent="Ck0CoVih8vaZb2gh3P4g-31">
          <mxGeometry y="103" width="230" height="20" as="geometry" />
        </mxCell>
        <mxCell id="Ck0CoVih8vaZb2gh3P4g-41" value="+ vote() : Boolean" style="text;html=1;strokeColor=none;fillColor=none;align=left;verticalAlign=middle;spacingLeft=4;spacingRight=4;overflow=hidden;rotatable=0;points=[[0,0.5],[1,0.5]];portConstraint=eastwest;fontFamily=Comic Sans MS;fontStyle=0;fontColor=#5C5C5C;" vertex="1" parent="Ck0CoVih8vaZb2gh3P4g-31">
          <mxGeometry y="123" width="230" height="20" as="geometry" />
        </mxCell>
        <mxCell id="Ck0CoVih8vaZb2gh3P4g-101" style="edgeStyle=orthogonalEdgeStyle;curved=0;rounded=1;sketch=0;orthogonalLoop=1;jettySize=auto;html=1;entryX=0;entryY=0.5;entryDx=0;entryDy=0;fontColor=#5C5C5C;endArrow=blockThin;endFill=0;strokeColor=#006658;fillColor=#21C0A5;dashed=1;" edge="1" parent="WIyWlLk6GJQsqaUBKTNV-1" source="Ck0CoVih8vaZb2gh3P4g-43" target="Ck0CoVih8vaZb2gh3P4g-69">
          <mxGeometry relative="1" as="geometry">
            <Array as="points">
              <mxPoint x="940" y="715" />
            </Array>
          </mxGeometry>
        </mxCell>
        <mxCell id="Ck0CoVih8vaZb2gh3P4g-43" value="&lt;p&gt;&lt;font&gt;&lt;b&gt;Minister&lt;/b&gt;&lt;br&gt;&lt;/font&gt;&lt;/p&gt;" style="swimlane;fontStyle=0;align=center;verticalAlign=top;childLayout=stackLayout;horizontal=1;startSize=55;horizontalStack=0;resizeParent=1;resizeParentMax=0;resizeLast=0;collapsible=0;marginBottom=0;html=1;fontFamily=Comic Sans MS;fillColor=#21C0A5;strokeColor=#006658;fontColor=#5C5C5C;" vertex="1" parent="WIyWlLk6GJQsqaUBKTNV-1">
          <mxGeometry x="470" y="620" width="230" height="190" as="geometry" />
        </mxCell>
        <mxCell id="Ck0CoVih8vaZb2gh3P4g-44" value="attributes" style="text;html=1;strokeColor=none;fillColor=none;align=center;verticalAlign=middle;spacingLeft=4;spacingRight=4;overflow=hidden;rotatable=0;points=[[0,0.5],[1,0.5]];portConstraint=eastwest;fontFamily=Comic Sans MS;fontColor=#5C5C5C;" vertex="1" parent="Ck0CoVih8vaZb2gh3P4g-43">
          <mxGeometry y="55" width="230" height="20" as="geometry" />
        </mxCell>
        <mxCell id="Ck0CoVih8vaZb2gh3P4g-46" value="- ministry : String" style="text;html=1;strokeColor=none;fillColor=none;align=left;verticalAlign=middle;spacingLeft=4;spacingRight=4;overflow=hidden;rotatable=0;points=[[0,0.5],[1,0.5]];portConstraint=eastwest;fontFamily=Comic Sans MS;fontColor=#5C5C5C;" vertex="1" parent="Ck0CoVih8vaZb2gh3P4g-43">
          <mxGeometry y="75" width="230" height="20" as="geometry" />
        </mxCell>
        <mxCell id="Ck0CoVih8vaZb2gh3P4g-48" value="" style="line;strokeWidth=1;fillColor=none;align=left;verticalAlign=middle;spacingTop=-1;spacingLeft=3;spacingRight=3;rotatable=0;labelPosition=right;points=[];portConstraint=eastwest;strokeColor=#006658;fontColor=#5C5C5C;" vertex="1" parent="Ck0CoVih8vaZb2gh3P4g-43">
          <mxGeometry y="95" width="230" height="8" as="geometry" />
        </mxCell>
        <mxCell id="Ck0CoVih8vaZb2gh3P4g-49" value="operations" style="text;html=1;strokeColor=none;fillColor=none;align=center;verticalAlign=middle;spacingLeft=4;spacingRight=4;overflow=hidden;rotatable=0;points=[[0,0.5],[1,0.5]];portConstraint=eastwest;fontFamily=Comic Sans MS;fontColor=#5C5C5C;" vertex="1" parent="Ck0CoVih8vaZb2gh3P4g-43">
          <mxGeometry y="103" width="230" height="20" as="geometry" />
        </mxCell>
        <mxCell id="Ck0CoVih8vaZb2gh3P4g-53" value="+ Minister(ministry : String)" style="text;html=1;strokeColor=none;fillColor=none;align=left;verticalAlign=middle;spacingLeft=4;spacingRight=4;overflow=hidden;rotatable=0;points=[[0,0.5],[1,0.5]];portConstraint=eastwest;fontFamily=Comic Sans MS;fontStyle=0;fontColor=#5C5C5C;" vertex="1" parent="Ck0CoVih8vaZb2gh3P4g-43">
          <mxGeometry y="123" width="230" height="20" as="geometry" />
        </mxCell>
        <mxCell id="Ck0CoVih8vaZb2gh3P4g-55" value="+ debate(topic : String) :&amp;nbsp;void" style="text;html=1;strokeColor=none;fillColor=none;align=left;verticalAlign=middle;spacingLeft=4;spacingRight=4;overflow=hidden;rotatable=0;points=[[0,0.5],[1,0.5]];portConstraint=eastwest;fontFamily=Comic Sans MS;fontStyle=0;fontColor=#5C5C5C;" vertex="1" parent="Ck0CoVih8vaZb2gh3P4g-43">
          <mxGeometry y="143" width="230" height="27" as="geometry" />
        </mxCell>
        <mxCell id="Ck0CoVih8vaZb2gh3P4g-54" value="+ order() :&amp;nbsp;String" style="text;html=1;strokeColor=none;fillColor=none;align=left;verticalAlign=middle;spacingLeft=4;spacingRight=4;overflow=hidden;rotatable=0;points=[[0,0.5],[1,0.5]];portConstraint=eastwest;fontFamily=Comic Sans MS;fontStyle=0;fontColor=#5C5C5C;" vertex="1" parent="Ck0CoVih8vaZb2gh3P4g-43">
          <mxGeometry y="170" width="230" height="20" as="geometry" />
        </mxCell>
        <mxCell id="Ck0CoVih8vaZb2gh3P4g-68" value="&amp;lt;&amp;lt;interface&amp;gt;&amp;gt;&lt;br&gt;&lt;b&gt;OrderIssuable&lt;/b&gt;&lt;br&gt;" style="swimlane;fontStyle=0;align=center;verticalAlign=top;childLayout=stackLayout;horizontal=1;startSize=55;horizontalStack=0;resizeParent=1;resizeParentMax=0;resizeLast=0;collapsible=0;marginBottom=0;html=1;fontFamily=Comic Sans MS;fillColor=#21C0A5;strokeColor=#006658;fontColor=#5C5C5C;" vertex="1" parent="WIyWlLk6GJQsqaUBKTNV-1">
          <mxGeometry x="980" y="650" width="140" height="123" as="geometry" />
        </mxCell>
        <mxCell id="Ck0CoVih8vaZb2gh3P4g-69" value="attributes" style="text;html=1;strokeColor=none;fillColor=none;align=center;verticalAlign=middle;spacingLeft=4;spacingRight=4;overflow=hidden;rotatable=0;points=[[0,0.5],[1,0.5]];portConstraint=eastwest;fontFamily=Comic Sans MS;fontColor=#5C5C5C;" vertex="1" parent="Ck0CoVih8vaZb2gh3P4g-68">
          <mxGeometry y="55" width="140" height="20" as="geometry" />
        </mxCell>
        <mxCell id="Ck0CoVih8vaZb2gh3P4g-73" value="" style="line;strokeWidth=1;fillColor=none;align=left;verticalAlign=middle;spacingTop=-1;spacingLeft=3;spacingRight=3;rotatable=0;labelPosition=right;points=[];portConstraint=eastwest;strokeColor=#006658;fontColor=#5C5C5C;" vertex="1" parent="Ck0CoVih8vaZb2gh3P4g-68">
          <mxGeometry y="75" width="140" height="8" as="geometry" />
        </mxCell>
        <mxCell id="Ck0CoVih8vaZb2gh3P4g-74" value="operations" style="text;html=1;strokeColor=none;fillColor=none;align=center;verticalAlign=middle;spacingLeft=4;spacingRight=4;overflow=hidden;rotatable=0;points=[[0,0.5],[1,0.5]];portConstraint=eastwest;fontFamily=Comic Sans MS;fontColor=#5C5C5C;" vertex="1" parent="Ck0CoVih8vaZb2gh3P4g-68">
          <mxGeometry y="83" width="140" height="20" as="geometry" />
        </mxCell>
        <mxCell id="Ck0CoVih8vaZb2gh3P4g-75" value="+&amp;nbsp;order() : String&amp;nbsp;" style="text;html=1;strokeColor=none;fillColor=none;align=left;verticalAlign=middle;spacingLeft=4;spacingRight=4;overflow=hidden;rotatable=0;points=[[0,0.5],[1,0.5]];portConstraint=eastwest;fontFamily=Comic Sans MS;fontColor=#5C5C5C;" vertex="1" parent="Ck0CoVih8vaZb2gh3P4g-68">
          <mxGeometry y="103" width="140" height="20" as="geometry" />
        </mxCell>
        <mxCell id="Ck0CoVih8vaZb2gh3P4g-76" value="&lt;p&gt;&lt;font&gt;&lt;b&gt;&lt;i&gt;Politician&lt;/i&gt;&lt;/b&gt;&lt;br&gt;&lt;/font&gt;&lt;/p&gt;" style="swimlane;fontStyle=0;align=center;verticalAlign=top;childLayout=stackLayout;horizontal=1;startSize=55;horizontalStack=0;resizeParent=1;resizeParentMax=0;resizeLast=0;collapsible=0;marginBottom=0;html=1;fontFamily=Comic Sans MS;fillColor=#21C0A5;strokeColor=#006658;fontColor=#5C5C5C;" vertex="1" parent="WIyWlLk6GJQsqaUBKTNV-1">
          <mxGeometry x="895" y="200" width="230" height="190" as="geometry" />
        </mxCell>
        <mxCell id="Ck0CoVih8vaZb2gh3P4g-77" value="attributes" style="text;html=1;strokeColor=none;fillColor=none;align=center;verticalAlign=middle;spacingLeft=4;spacingRight=4;overflow=hidden;rotatable=0;points=[[0,0.5],[1,0.5]];portConstraint=eastwest;fontFamily=Comic Sans MS;fontColor=#5C5C5C;" vertex="1" parent="Ck0CoVih8vaZb2gh3P4g-76">
          <mxGeometry y="55" width="230" height="20" as="geometry" />
        </mxCell>
        <mxCell id="Ck0CoVih8vaZb2gh3P4g-78" value="# name : String" style="text;html=1;strokeColor=none;fillColor=none;align=left;verticalAlign=middle;spacingLeft=4;spacingRight=4;overflow=hidden;rotatable=0;points=[[0,0.5],[1,0.5]];portConstraint=eastwest;fontFamily=Comic Sans MS;fontColor=#5C5C5C;" vertex="1" parent="Ck0CoVih8vaZb2gh3P4g-76">
          <mxGeometry y="75" width="230" height="20" as="geometry" />
        </mxCell>
        <mxCell id="Ck0CoVih8vaZb2gh3P4g-79" value="" style="line;strokeWidth=1;fillColor=none;align=left;verticalAlign=middle;spacingTop=-1;spacingLeft=3;spacingRight=3;rotatable=0;labelPosition=right;points=[];portConstraint=eastwest;strokeColor=#006658;fontColor=#5C5C5C;" vertex="1" parent="Ck0CoVih8vaZb2gh3P4g-76">
          <mxGeometry y="95" width="230" height="8" as="geometry" />
        </mxCell>
        <mxCell id="Ck0CoVih8vaZb2gh3P4g-80" value="operations" style="text;html=1;strokeColor=none;fillColor=none;align=center;verticalAlign=middle;spacingLeft=4;spacingRight=4;overflow=hidden;rotatable=0;points=[[0,0.5],[1,0.5]];portConstraint=eastwest;fontFamily=Comic Sans MS;fontColor=#5C5C5C;" vertex="1" parent="Ck0CoVih8vaZb2gh3P4g-76">
          <mxGeometry y="103" width="230" height="20" as="geometry" />
        </mxCell>
        <mxCell id="Ck0CoVih8vaZb2gh3P4g-81" value="&lt;i&gt;+ debate(topic :&lt;/i&gt;&lt;i&gt;String&lt;/i&gt;&lt;i&gt;) : void&lt;/i&gt;" style="text;html=1;strokeColor=none;fillColor=none;align=left;verticalAlign=middle;spacingLeft=4;spacingRight=4;overflow=hidden;rotatable=0;points=[[0,0.5],[1,0.5]];portConstraint=eastwest;fontFamily=Comic Sans MS;fontStyle=0;fontColor=#5C5C5C;" vertex="1" parent="Ck0CoVih8vaZb2gh3P4g-76">
          <mxGeometry y="123" width="230" height="20" as="geometry" />
        </mxCell>
        <mxCell id="Ck0CoVih8vaZb2gh3P4g-82" value="+ getName() : String" style="text;html=1;strokeColor=none;fillColor=none;align=left;verticalAlign=middle;spacingLeft=4;spacingRight=4;overflow=hidden;rotatable=0;points=[[0,0.5],[1,0.5]];portConstraint=eastwest;fontFamily=Comic Sans MS;fontStyle=0;fontColor=#5C5C5C;" vertex="1" parent="Ck0CoVih8vaZb2gh3P4g-76">
          <mxGeometry y="143" width="230" height="27" as="geometry" />
        </mxCell>
        <mxCell id="Ck0CoVih8vaZb2gh3P4g-83" value="+ setName(name : String) :&amp;nbsp;void" style="text;html=1;strokeColor=none;fillColor=none;align=left;verticalAlign=middle;spacingLeft=4;spacingRight=4;overflow=hidden;rotatable=0;points=[[0,0.5],[1,0.5]];portConstraint=eastwest;fontFamily=Comic Sans MS;fontStyle=0;fontColor=#5C5C5C;" vertex="1" parent="Ck0CoVih8vaZb2gh3P4g-76">
          <mxGeometry y="170" width="230" height="20" as="geometry" />
        </mxCell>
        <mxCell id="Ck0CoVih8vaZb2gh3P4g-105" style="edgeStyle=orthogonalEdgeStyle;curved=0;rounded=1;sketch=0;orthogonalLoop=1;jettySize=auto;html=1;entryX=1;entryY=0.5;entryDx=0;entryDy=0;fontColor=#5C5C5C;startArrow=none;startFill=0;endArrow=diamondThin;endFill=1;strokeColor=#006658;fillColor=#21C0A5;exitX=-0.006;exitY=-0.117;exitDx=0;exitDy=0;exitPerimeter=0;" edge="1" parent="WIyWlLk6GJQsqaUBKTNV-1" source="Ck0CoVih8vaZb2gh3P4g-85" target="Ck0CoVih8vaZb2gh3P4g-20">
          <mxGeometry relative="1" as="geometry" />
        </mxCell>
        <mxCell id="Ck0CoVih8vaZb2gh3P4g-133" value="0,1" style="edgeLabel;html=1;align=center;verticalAlign=middle;resizable=0;points=[];fontColor=#5C5C5C;" vertex="1" connectable="0" parent="Ck0CoVih8vaZb2gh3P4g-105">
          <mxGeometry x="-0.8597" y="1" relative="1" as="geometry">
            <mxPoint x="-11" y="-13" as="offset" />
          </mxGeometry>
        </mxCell>
        <mxCell id="Ck0CoVih8vaZb2gh3P4g-84" value="&lt;p&gt;&lt;font&gt;&lt;b&gt;PrimeMinister&lt;/b&gt;&lt;br&gt;&lt;/font&gt;&lt;/p&gt;" style="swimlane;fontStyle=0;align=center;verticalAlign=top;childLayout=stackLayout;horizontal=1;startSize=55;horizontalStack=0;resizeParent=1;resizeParentMax=0;resizeLast=0;collapsible=0;marginBottom=0;html=1;fontFamily=Comic Sans MS;fillColor=#21C0A5;strokeColor=#006658;fontColor=#5C5C5C;" vertex="1" parent="WIyWlLk6GJQsqaUBKTNV-1">
          <mxGeometry x="470" y="310" width="260" height="270" as="geometry" />
        </mxCell>
        <mxCell id="Ck0CoVih8vaZb2gh3P4g-85" value="attributes" style="text;html=1;strokeColor=none;fillColor=none;align=center;verticalAlign=middle;spacingLeft=4;spacingRight=4;overflow=hidden;rotatable=0;points=[[0,0.5],[1,0.5]];portConstraint=eastwest;fontFamily=Comic Sans MS;fontColor=#5C5C5C;" vertex="1" parent="Ck0CoVih8vaZb2gh3P4g-84">
          <mxGeometry y="55" width="260" height="20" as="geometry" />
        </mxCell>
        <mxCell id="Ck0CoVih8vaZb2gh3P4g-86" value="&lt;span&gt;-&amp;nbsp;parliament :&amp;nbsp;Parliament&lt;/span&gt;" style="text;html=1;strokeColor=none;fillColor=none;align=left;verticalAlign=middle;spacingLeft=4;spacingRight=4;overflow=hidden;rotatable=0;points=[[0,0.5],[1,0.5]];portConstraint=eastwest;fontFamily=Comic Sans MS;fontStyle=0;fontColor=#5C5C5C;" vertex="1" parent="Ck0CoVih8vaZb2gh3P4g-84">
          <mxGeometry y="75" width="260" height="20" as="geometry" />
        </mxCell>
        <mxCell id="Ck0CoVih8vaZb2gh3P4g-87" value="- cabinet: Cabinet" style="text;html=1;strokeColor=none;fillColor=none;align=left;verticalAlign=middle;spacingLeft=4;spacingRight=4;overflow=hidden;rotatable=0;points=[[0,0.5],[1,0.5]];portConstraint=eastwest;fontFamily=Comic Sans MS;fontColor=#5C5C5C;" vertex="1" parent="Ck0CoVih8vaZb2gh3P4g-84">
          <mxGeometry y="95" width="260" height="20" as="geometry" />
        </mxCell>
        <mxCell id="Ck0CoVih8vaZb2gh3P4g-89" value="" style="line;strokeWidth=1;fillColor=none;align=left;verticalAlign=middle;spacingTop=-1;spacingLeft=3;spacingRight=3;rotatable=0;labelPosition=right;points=[];portConstraint=eastwest;strokeColor=#006658;fontColor=#5C5C5C;" vertex="1" parent="Ck0CoVih8vaZb2gh3P4g-84">
          <mxGeometry y="115" width="260" height="8" as="geometry" />
        </mxCell>
        <mxCell id="Ck0CoVih8vaZb2gh3P4g-90" value="operations" style="text;html=1;strokeColor=none;fillColor=none;align=center;verticalAlign=middle;spacingLeft=4;spacingRight=4;overflow=hidden;rotatable=0;points=[[0,0.5],[1,0.5]];portConstraint=eastwest;fontFamily=Comic Sans MS;fontColor=#5C5C5C;" vertex="1" parent="Ck0CoVih8vaZb2gh3P4g-84">
          <mxGeometry y="123" width="260" height="20" as="geometry" />
        </mxCell>
        <mxCell id="Ck0CoVih8vaZb2gh3P4g-95" value="+ PrimeMinister(parliament : Parliament)&amp;nbsp;" style="text;html=1;strokeColor=none;fillColor=none;align=left;verticalAlign=middle;spacingLeft=4;spacingRight=4;overflow=hidden;rotatable=0;points=[[0,0.5],[1,0.5]];portConstraint=eastwest;fontFamily=Comic Sans MS;fontStyle=0;fontColor=#5C5C5C;" vertex="1" parent="Ck0CoVih8vaZb2gh3P4g-84">
          <mxGeometry y="143" width="260" height="20" as="geometry" />
        </mxCell>
        <mxCell id="Ck0CoVih8vaZb2gh3P4g-94" value="+ getCabinet() :&amp;nbsp;Cabinet" style="text;html=1;strokeColor=none;fillColor=none;align=left;verticalAlign=middle;spacingLeft=4;spacingRight=4;overflow=hidden;rotatable=0;points=[[0,0.5],[1,0.5]];portConstraint=eastwest;fontFamily=Comic Sans MS;fontStyle=0;fontColor=#5C5C5C;" vertex="1" parent="Ck0CoVih8vaZb2gh3P4g-84">
          <mxGeometry y="163" width="260" height="20" as="geometry" />
        </mxCell>
        <mxCell id="Ck0CoVih8vaZb2gh3P4g-96" value="&lt;span&gt;+ addMinister(ministry : String) :&amp;nbsp;void&lt;/span&gt;" style="text;html=1;strokeColor=none;fillColor=none;align=left;verticalAlign=middle;spacingLeft=4;spacingRight=4;overflow=hidden;rotatable=0;points=[[0,0.5],[1,0.5]];portConstraint=eastwest;fontFamily=Comic Sans MS;fontStyle=0;fontColor=#5C5C5C;" vertex="1" parent="Ck0CoVih8vaZb2gh3P4g-84">
          <mxGeometry y="183" width="260" height="20" as="geometry" />
        </mxCell>
        <mxCell id="Ck0CoVih8vaZb2gh3P4g-92" value="&lt;span&gt;+ removeMinister(minister: Minister) :&amp;nbsp;void&lt;/span&gt;" style="text;html=1;strokeColor=none;fillColor=none;align=left;verticalAlign=middle;spacingLeft=4;spacingRight=4;overflow=hidden;rotatable=0;points=[[0,0.5],[1,0.5]];portConstraint=eastwest;fontFamily=Comic Sans MS;fontStyle=0;fontColor=#5C5C5C;" vertex="1" parent="Ck0CoVih8vaZb2gh3P4g-84">
          <mxGeometry y="203" width="260" height="20" as="geometry" />
        </mxCell>
        <mxCell id="Ck0CoVih8vaZb2gh3P4g-97" value="+ debate(topic : String) :&amp;nbsp;void" style="text;html=1;strokeColor=none;fillColor=none;align=left;verticalAlign=middle;spacingLeft=4;spacingRight=4;overflow=hidden;rotatable=0;points=[[0,0.5],[1,0.5]];portConstraint=eastwest;fontFamily=Comic Sans MS;fontStyle=0;fontColor=#5C5C5C;" vertex="1" parent="Ck0CoVih8vaZb2gh3P4g-84">
          <mxGeometry y="223" width="260" height="27" as="geometry" />
        </mxCell>
        <mxCell id="Ck0CoVih8vaZb2gh3P4g-98" value="+ order() :&amp;nbsp;String" style="text;html=1;strokeColor=none;fillColor=none;align=left;verticalAlign=middle;spacingLeft=4;spacingRight=4;overflow=hidden;rotatable=0;points=[[0,0.5],[1,0.5]];portConstraint=eastwest;fontFamily=Comic Sans MS;fontStyle=0;fontColor=#5C5C5C;" vertex="1" parent="Ck0CoVih8vaZb2gh3P4g-84">
          <mxGeometry y="250" width="260" height="20" as="geometry" />
        </mxCell>
        <mxCell id="Ck0CoVih8vaZb2gh3P4g-99" style="edgeStyle=orthogonalEdgeStyle;curved=0;rounded=1;sketch=0;orthogonalLoop=1;jettySize=auto;html=1;entryX=-0.011;entryY=0.008;entryDx=0;entryDy=0;fontColor=#5C5C5C;strokeColor=#006658;fillColor=#21C0A5;endArrow=blockThin;endFill=0;exitX=1.015;exitY=0.088;exitDx=0;exitDy=0;exitPerimeter=0;entryPerimeter=0;" edge="1" parent="WIyWlLk6GJQsqaUBKTNV-1" source="Ck0CoVih8vaZb2gh3P4g-37" target="Ck0CoVih8vaZb2gh3P4g-77">
          <mxGeometry relative="1" as="geometry">
            <mxPoint x="810" y="210" as="sourcePoint" />
            <Array as="points">
              <mxPoint x="810" y="165" />
              <mxPoint x="810" y="255" />
            </Array>
          </mxGeometry>
        </mxCell>
        <mxCell id="Ck0CoVih8vaZb2gh3P4g-100" style="edgeStyle=orthogonalEdgeStyle;curved=0;rounded=1;sketch=0;orthogonalLoop=1;jettySize=auto;html=1;entryX=0.007;entryY=-0.117;entryDx=0;entryDy=0;entryPerimeter=0;fontColor=#5C5C5C;endArrow=blockThin;endFill=0;strokeColor=#006658;fillColor=#21C0A5;exitX=1;exitY=0.5;exitDx=0;exitDy=0;" edge="1" parent="WIyWlLk6GJQsqaUBKTNV-1" source="Ck0CoVih8vaZb2gh3P4g-44" target="Ck0CoVih8vaZb2gh3P4g-83">
          <mxGeometry relative="1" as="geometry">
            <Array as="points">
              <mxPoint x="850" y="685" />
              <mxPoint x="850" y="368" />
            </Array>
          </mxGeometry>
        </mxCell>
        <mxCell id="Ck0CoVih8vaZb2gh3P4g-106" style="edgeStyle=orthogonalEdgeStyle;curved=0;rounded=1;sketch=0;orthogonalLoop=1;jettySize=auto;html=1;entryX=1;entryY=0.929;entryDx=0;entryDy=0;fontColor=#5C5C5C;startArrow=none;startFill=0;endArrow=diamondThin;endFill=1;strokeColor=#006658;fillColor=#21C0A5;exitX=0;exitY=0.5;exitDx=0;exitDy=0;entryPerimeter=0;" edge="1" parent="WIyWlLk6GJQsqaUBKTNV-1" source="Ck0CoVih8vaZb2gh3P4g-37" target="Ck0CoVih8vaZb2gh3P4g-8">
          <mxGeometry relative="1" as="geometry">
            <mxPoint x="210.0588235294117" y="460" as="sourcePoint" />
            <mxPoint x="310" y="333" as="targetPoint" />
          </mxGeometry>
        </mxCell>
        <mxCell id="Ck0CoVih8vaZb2gh3P4g-130" value="0...*" style="edgeLabel;html=1;align=center;verticalAlign=middle;resizable=0;points=[];fontColor=#5C5C5C;" vertex="1" connectable="0" parent="Ck0CoVih8vaZb2gh3P4g-106">
          <mxGeometry x="-0.7615" relative="1" as="geometry">
            <mxPoint y="-10" as="offset" />
          </mxGeometry>
        </mxCell>
        <mxCell id="Ck0CoVih8vaZb2gh3P4g-107" value="&lt;p&gt;&lt;font&gt;&lt;b&gt;Cabinet&lt;/b&gt;&lt;br&gt;&lt;/font&gt;&lt;/p&gt;" style="swimlane;fontStyle=0;align=center;verticalAlign=top;childLayout=stackLayout;horizontal=1;startSize=55;horizontalStack=0;resizeParent=1;resizeParentMax=0;resizeLast=0;collapsible=0;marginBottom=0;html=1;fontFamily=Comic Sans MS;fillColor=#21C0A5;strokeColor=#006658;fontColor=#5C5C5C;" vertex="1" parent="WIyWlLk6GJQsqaUBKTNV-1">
          <mxGeometry x="70" y="596.5" width="280" height="230" as="geometry" />
        </mxCell>
        <mxCell id="Ck0CoVih8vaZb2gh3P4g-108" value="attributes" style="text;html=1;strokeColor=none;fillColor=none;align=center;verticalAlign=middle;spacingLeft=4;spacingRight=4;overflow=hidden;rotatable=0;points=[[0,0.5],[1,0.5]];portConstraint=eastwest;fontFamily=Comic Sans MS;fontColor=#5C5C5C;" vertex="1" parent="Ck0CoVih8vaZb2gh3P4g-107">
          <mxGeometry y="55" width="280" height="20" as="geometry" />
        </mxCell>
        <mxCell id="Ck0CoVih8vaZb2gh3P4g-109" value="- pm : PrimeMinister" style="text;html=1;strokeColor=none;fillColor=none;align=left;verticalAlign=middle;spacingLeft=4;spacingRight=4;overflow=hidden;rotatable=0;points=[[0,0.5],[1,0.5]];portConstraint=eastwest;fontFamily=Comic Sans MS;fontColor=#5C5C5C;" vertex="1" parent="Ck0CoVih8vaZb2gh3P4g-107">
          <mxGeometry y="75" width="280" height="20" as="geometry" />
        </mxCell>
        <mxCell id="Ck0CoVih8vaZb2gh3P4g-115" value="- ministers : List&amp;lt;Minister&amp;gt;" style="text;html=1;strokeColor=none;fillColor=none;align=left;verticalAlign=middle;spacingLeft=4;spacingRight=4;overflow=hidden;rotatable=0;points=[[0,0.5],[1,0.5]];portConstraint=eastwest;fontFamily=Comic Sans MS;fontColor=#5C5C5C;" vertex="1" parent="Ck0CoVih8vaZb2gh3P4g-107">
          <mxGeometry y="95" width="280" height="20" as="geometry" />
        </mxCell>
        <mxCell id="Ck0CoVih8vaZb2gh3P4g-110" value="" style="line;strokeWidth=1;fillColor=none;align=left;verticalAlign=middle;spacingTop=-1;spacingLeft=3;spacingRight=3;rotatable=0;labelPosition=right;points=[];portConstraint=eastwest;strokeColor=#006658;fontColor=#5C5C5C;" vertex="1" parent="Ck0CoVih8vaZb2gh3P4g-107">
          <mxGeometry y="115" width="280" height="8" as="geometry" />
        </mxCell>
        <mxCell id="Ck0CoVih8vaZb2gh3P4g-111" value="operations" style="text;html=1;strokeColor=none;fillColor=none;align=center;verticalAlign=middle;spacingLeft=4;spacingRight=4;overflow=hidden;rotatable=0;points=[[0,0.5],[1,0.5]];portConstraint=eastwest;fontFamily=Comic Sans MS;fontColor=#5C5C5C;" vertex="1" parent="Ck0CoVih8vaZb2gh3P4g-107">
          <mxGeometry y="123" width="280" height="20" as="geometry" />
        </mxCell>
        <mxCell id="Ck0CoVih8vaZb2gh3P4g-112" value="+ Cabinet(pm: PrimeMinister)" style="text;html=1;strokeColor=none;fillColor=none;align=left;verticalAlign=middle;spacingLeft=4;spacingRight=4;overflow=hidden;rotatable=0;points=[[0,0.5],[1,0.5]];portConstraint=eastwest;fontFamily=Comic Sans MS;fontStyle=0;fontColor=#5C5C5C;" vertex="1" parent="Ck0CoVih8vaZb2gh3P4g-107">
          <mxGeometry y="143" width="280" height="20" as="geometry" />
        </mxCell>
        <mxCell id="Ck0CoVih8vaZb2gh3P4g-113" value="- countMinisters() : int" style="text;html=1;strokeColor=none;fillColor=none;align=left;verticalAlign=middle;spacingLeft=4;spacingRight=4;overflow=hidden;rotatable=0;points=[[0,0.5],[1,0.5]];portConstraint=eastwest;fontFamily=Comic Sans MS;fontStyle=0;fontColor=#5C5C5C;" vertex="1" parent="Ck0CoVih8vaZb2gh3P4g-107">
          <mxGeometry y="163" width="280" height="27" as="geometry" />
        </mxCell>
        <mxCell id="Ck0CoVih8vaZb2gh3P4g-114" value="+ addMinister(minister : Minister) :&amp;nbsp;void" style="text;html=1;strokeColor=none;fillColor=none;align=left;verticalAlign=middle;spacingLeft=4;spacingRight=4;overflow=hidden;rotatable=0;points=[[0,0.5],[1,0.5]];portConstraint=eastwest;fontFamily=Comic Sans MS;fontStyle=0;fontColor=#5C5C5C;" vertex="1" parent="Ck0CoVih8vaZb2gh3P4g-107">
          <mxGeometry y="190" width="280" height="20" as="geometry" />
        </mxCell>
        <mxCell id="Ck0CoVih8vaZb2gh3P4g-125" value="+ removeMinister(minister : Minister) :&amp;nbsp;void" style="text;html=1;strokeColor=none;fillColor=none;align=left;verticalAlign=middle;spacingLeft=4;spacingRight=4;overflow=hidden;rotatable=0;points=[[0,0.5],[1,0.5]];portConstraint=eastwest;fontFamily=Comic Sans MS;fontStyle=0;fontColor=#5C5C5C;" vertex="1" parent="Ck0CoVih8vaZb2gh3P4g-107">
          <mxGeometry y="210" width="280" height="20" as="geometry" />
        </mxCell>
        <mxCell id="Ck0CoVih8vaZb2gh3P4g-128" style="edgeStyle=orthogonalEdgeStyle;curved=0;rounded=1;sketch=0;orthogonalLoop=1;jettySize=auto;html=1;entryX=1;entryY=0.5;entryDx=0;entryDy=0;fontColor=#5C5C5C;startArrow=none;startFill=0;endArrow=diamondThin;endFill=1;strokeColor=#006658;fillColor=#21C0A5;" edge="1" parent="WIyWlLk6GJQsqaUBKTNV-1" source="Ck0CoVih8vaZb2gh3P4g-49" target="Ck0CoVih8vaZb2gh3P4g-111">
          <mxGeometry relative="1" as="geometry" />
        </mxCell>
        <mxCell id="Ck0CoVih8vaZb2gh3P4g-129" value="0...*" style="edgeLabel;html=1;align=center;verticalAlign=middle;resizable=0;points=[];fontColor=#5C5C5C;" vertex="1" connectable="0" parent="Ck0CoVih8vaZb2gh3P4g-128">
          <mxGeometry x="0.2112" y="-1" relative="1" as="geometry">
            <mxPoint x="44" y="60" as="offset" />
          </mxGeometry>
        </mxCell>
        <mxCell id="Ck0CoVih8vaZb2gh3P4g-132" value="0,1" style="text;html=1;align=center;verticalAlign=middle;resizable=0;points=[];autosize=1;strokeColor=none;fillColor=none;fontColor=#5C5C5C;" vertex="1" parent="WIyWlLk6GJQsqaUBKTNV-1">
          <mxGeometry x="35" y="60" width="30" height="20" as="geometry" />
        </mxCell>
        <mxCell id="Ck0CoVih8vaZb2gh3P4g-134" style="edgeStyle=orthogonalEdgeStyle;curved=0;rounded=1;sketch=0;orthogonalLoop=1;jettySize=auto;html=1;entryX=-0.011;entryY=1.15;entryDx=0;entryDy=0;fontColor=#5C5C5C;startArrow=none;startFill=0;endArrow=blockThin;endFill=0;strokeColor=#006658;fillColor=#21C0A5;entryPerimeter=0;" edge="1" parent="WIyWlLk6GJQsqaUBKTNV-1" source="Ck0CoVih8vaZb2gh3P4g-94" target="Ck0CoVih8vaZb2gh3P4g-81">
          <mxGeometry relative="1" as="geometry" />
        </mxCell>
        <mxCell id="Ck0CoVih8vaZb2gh3P4g-135" style="edgeStyle=orthogonalEdgeStyle;curved=0;rounded=1;sketch=0;orthogonalLoop=1;jettySize=auto;html=1;exitX=1;exitY=0.5;exitDx=0;exitDy=0;entryX=0.643;entryY=0;entryDx=0;entryDy=0;entryPerimeter=0;fontColor=#5C5C5C;startArrow=none;startFill=0;endArrow=blockThin;endFill=0;strokeColor=#006658;fillColor=#21C0A5;dashed=1;" edge="1" parent="WIyWlLk6GJQsqaUBKTNV-1" source="Ck0CoVih8vaZb2gh3P4g-92" target="Ck0CoVih8vaZb2gh3P4g-68">
          <mxGeometry relative="1" as="geometry" />
        </mxCell>
        <mxCell id="Ck0CoVih8vaZb2gh3P4g-136" style="edgeStyle=orthogonalEdgeStyle;curved=0;rounded=1;sketch=0;orthogonalLoop=1;jettySize=auto;html=1;exitX=0;exitY=0.5;exitDx=0;exitDy=0;entryX=0.607;entryY=0;entryDx=0;entryDy=0;entryPerimeter=0;fontColor=#5C5C5C;startArrow=diamondThin;startFill=1;endArrow=none;endFill=0;strokeColor=#006658;fillColor=#21C0A5;" edge="1" parent="WIyWlLk6GJQsqaUBKTNV-1" source="Ck0CoVih8vaZb2gh3P4g-95" target="Ck0CoVih8vaZb2gh3P4g-107">
          <mxGeometry relative="1" as="geometry" />
        </mxCell>
        <mxCell id="Ck0CoVih8vaZb2gh3P4g-137" value="0,1" style="edgeLabel;html=1;align=center;verticalAlign=middle;resizable=0;points=[];fontColor=#5C5C5C;" vertex="1" connectable="0" parent="Ck0CoVih8vaZb2gh3P4g-136">
          <mxGeometry x="0.3866" y="-2" relative="1" as="geometry">
            <mxPoint x="-21" y="-8" as="offset" />
          </mxGeometry>
        </mxCell>
        <mxCell id="Ck0CoVih8vaZb2gh3P4g-141" value="&amp;lt; สร้าง" style="edgeLabel;html=1;align=center;verticalAlign=middle;resizable=0;points=[];fontColor=#5C5C5C;" vertex="1" connectable="0" parent="Ck0CoVih8vaZb2gh3P4g-136">
          <mxGeometry x="-0.0931" y="3" relative="1" as="geometry">
            <mxPoint y="-16" as="offset" />
          </mxGeometry>
        </mxCell>
        <mxCell id="Ck0CoVih8vaZb2gh3P4g-138" style="edgeStyle=orthogonalEdgeStyle;curved=0;rounded=1;sketch=0;orthogonalLoop=1;jettySize=auto;html=1;exitX=1;exitY=0.5;exitDx=0;exitDy=0;fontColor=#5C5C5C;startArrow=none;startFill=0;endArrow=diamondThin;endFill=0;strokeColor=#006658;fillColor=#21C0A5;entryX=0;entryY=0.25;entryDx=0;entryDy=0;entryPerimeter=0;" edge="1" parent="WIyWlLk6GJQsqaUBKTNV-1" source="Ck0CoVih8vaZb2gh3P4g-21" target="Ck0CoVih8vaZb2gh3P4g-87">
          <mxGeometry relative="1" as="geometry">
            <Array as="points">
              <mxPoint x="360" y="333" />
              <mxPoint x="360" y="410" />
            </Array>
          </mxGeometry>
        </mxCell>
        <mxCell id="Ck0CoVih8vaZb2gh3P4g-139" style="edgeStyle=orthogonalEdgeStyle;curved=0;rounded=1;sketch=0;orthogonalLoop=1;jettySize=auto;html=1;entryX=0.999;entryY=0.212;entryDx=0;entryDy=0;entryPerimeter=0;fontColor=#5C5C5C;startArrow=none;startFill=0;endArrow=diamondThin;endFill=1;strokeColor=#006658;fillColor=#21C0A5;" edge="1" parent="WIyWlLk6GJQsqaUBKTNV-1" source="Ck0CoVih8vaZb2gh3P4g-97" target="Ck0CoVih8vaZb2gh3P4g-43">
          <mxGeometry relative="1" as="geometry">
            <Array as="points">
              <mxPoint x="790" y="550" />
              <mxPoint x="790" y="660" />
            </Array>
          </mxGeometry>
        </mxCell>
        <mxCell id="Ck0CoVih8vaZb2gh3P4g-140" value="0...*" style="text;html=1;align=center;verticalAlign=middle;resizable=0;points=[];autosize=1;strokeColor=none;fillColor=none;fontColor=#5C5C5C;" vertex="1" parent="WIyWlLk6GJQsqaUBKTNV-1">
          <mxGeometry x="730" y="640" width="40" height="20" as="geometry" />
        </mxCell>
        <mxCell id="Ck0CoVih8vaZb2gh3P4g-142" style="edgeStyle=orthogonalEdgeStyle;curved=0;rounded=1;sketch=0;orthogonalLoop=1;jettySize=auto;html=1;entryX=0;entryY=0.5;entryDx=0;entryDy=0;fontColor=#5C5C5C;startArrow=none;startFill=0;endArrow=open;endFill=0;strokeColor=#006658;fillColor=#21C0A5;dashed=1;" edge="1" parent="WIyWlLk6GJQsqaUBKTNV-1" source="Ck0CoVih8vaZb2gh3P4g-98" target="Ck0CoVih8vaZb2gh3P4g-44">
          <mxGeometry relative="1" as="geometry">
            <Array as="points">
              <mxPoint x="400" y="570" />
              <mxPoint x="400" y="685" />
            </Array>
          </mxGeometry>
        </mxCell>
        <mxCell id="Ck0CoVih8vaZb2gh3P4g-143" value="&amp;lt; use" style="edgeLabel;html=1;align=center;verticalAlign=middle;resizable=0;points=[];fontColor=#5C5C5C;" vertex="1" connectable="0" parent="Ck0CoVih8vaZb2gh3P4g-142">
          <mxGeometry x="-0.627" y="-2" relative="1" as="geometry">
            <mxPoint x="8" y="-8" as="offset" />
          </mxGeometry>
        </mxCell>
      </root>
    </mxGraphModel>
  </diagram>
</mxfile>
